<?xml version="1.0" encoding="utf-8"?>
<!-- Generator: Adobe Illustrator 27.5.0, SVG Export Plug-In . SVG Version: 6.00 Build 0)  -->
<svg version="1.1" id="Layer_1" xmlns="http://www.w3.org/2000/svg" xmlns:xlink="http://www.w3.org/1999/xlink" x="0px" y="0px"
	 viewBox="0 0 595.3 841.9" style="enable-background:new 0 0 595.3 841.9;" xml:space="preserve">
<style type="text/css">
	.st0{fill:url(#SVGID_1_);}
	.st1{fill:url(#SVGID_00000127013637709043815530000013348640462816792213_);}
</style>
<linearGradient id="SVGID_1_" gradientUnits="userSpaceOnUse" x1="245.8623" y1="410.15" x2="352.0377" y2="410.15">
	<stop  offset="5.618000e-03" style="stop-color:#435972"/>
	<stop  offset="0.1077" style="stop-color:#536880"/>
	<stop  offset="0.2542" style="stop-color:#64768F"/>
	<stop  offset="0.4165" style="stop-color:#6E7F97"/>
	<stop  offset="0.6236" style="stop-color:#71829A"/>
	<stop  offset="0.7307" style="stop-color:#72849D"/>
	<stop  offset="0.8166" style="stop-color:#768BA7"/>
	<stop  offset="0.8953" style="stop-color:#7D96B8"/>
	<stop  offset="0.9691" style="stop-color:#86A5D0"/>
	<stop  offset="1" style="stop-color:#8BADDC"/>
</linearGradient>
<path class="st0" d="M343.1,452.8c-0.3,0.2-0.5,0.4-0.8,0.5c-8.7,4.8-15.6,11.3-19.6,20.6c-1.8,4.1-2.4,8.3-2.2,12.7
	c0.1,1.7,0,1.7-1.6,1.7c-13.8,0-27.7,0-41.5,0c-1.1,0-1.4-0.2-1.4-1.4c0.1-7.8-2.8-14.4-7.8-20.3c-4.1-4.8-9.1-8.4-14.5-11.6
	c-0.3-0.2-0.6-0.4-1-0.6c-0.1-0.1-0.2-0.2-0.3-0.3c3.5-5.7,6.3-11.8,8.9-18.4c-1.3,0-2.2,0-3.2,0c-0.2,0-0.5,0.5-0.6,0.8
	c-0.3,1.1-0.5,2.3-0.7,3.4c-0.1,0.7-0.5,1.1-1.3,1.1c-1.9,0-3.8,0.1-5.6-0.1c-0.6,0-1.4-0.5-1.7-1c-3.1-4.3-3.1-9.4-0.1-13.8
	c0.6-0.9,1.5-1.3,2.5-1.3c1.6,0,3.2-0.1,4.7,0c0.4,0,1,0.5,1.1,0.8c0.4,1,0.7,2.1,0.8,3.1c0.2,1.1,0.7,1.4,1.8,1.3
	c0.9-0.1,1.9-0.1,2.9,0c0.9,0.1,1.3-0.3,1.5-1.2c2.2-7.6,4-15.4,5.3-23.2c0.2-1.3,0.4-2.6,0.7-4.1c-1.6,0-3.2,0-4.7,0
	c-0.3,0-0.7,0.5-0.7,0.8c-0.4,1.2-0.6,2.4-0.9,3.6c-0.1,0.3-0.6,0.8-0.9,0.8c-2,0.1-4,0.1-6,0c-0.5,0-1.2-0.5-1.5-0.9
	c-3.1-4.3-3.1-9.5,0-13.9c0.6-0.8,1.3-1.3,2.3-1.2c1.6,0,3.2,0,4.9,0c0.7,0,1.1,0.2,1.2,1c0.3,1.4,0.7,2.8,1.1,4.3
	c1.8,0,3.6,0,5.5,0c0.2,0,0.6-0.5,0.6-0.8c0.5-5.5,1.1-11,1.5-16.5c0.2-3.2,0.3-6.4,0.5-9.6c0-0.3,0-0.7,0-1.2c-0.8,0-1.6-0.1-2.4,0
	c-0.3,0.1-0.8,0.5-0.9,0.8c-0.3,1-0.5,2-0.7,3s-0.7,1.5-1.8,1.5c-1.5,0-3.1,0-4.6,0c-1,0-1.8-0.3-2.3-1.2c-3.2-5.4-3.1-8.6,0.1-13.9
	c0.3-0.5,1.2-1,1.8-1c1.7-0.2,3.3,0,5-0.1c1.1,0,1.5,0.5,1.7,1.4c0.2,1,0.5,1.9,0.6,2.9c0.1,0.8,0.5,1.1,1.3,1.1
	c0.5,0,0.9-0.1,1.4-0.1c0.6,0,0.9-0.3,0.8-0.9c-0.2-9-0.5-18-0.7-27c0-0.7-0.1-1.3-0.2-2.4c0.5,0.5,0.8,0.8,1.1,1.1
	c6,6.3,12.8,11.3,21.2,13.9c10.3,3.2,20.4,2.6,30.4-1.6c0.1-0.1,0.3-0.1,0.7-0.1c0,5.4,0,10.6,0,16c1.3,0,2.4,0.1,3.5,0
	c0.2,0,0.5-0.5,0.6-0.8c0.3-1.1,0.4-2.3,0.8-3.4c0.1-0.4,0.8-0.9,1.2-0.9c1.8-0.1,3.7-0.1,5.5,0c0.7,0.1,1.5,0.6,1.9,1.2
	c3.2,5.6,3.1,8.4-0.1,13.6c-0.4,0.6-1.5,1.1-2.3,1.2c-1.6,0.2-3.2,0-4.9,0c-0.8,0-1.2-0.3-1.4-1.1c-0.2-1.1-0.5-2.1-0.7-3.2
	c-0.1-0.7-0.5-1.1-1.3-1.1s-1.7,0-2.6,0c0,0.5,0,0.8,0,1.2c0.7,8.8,1.4,17.5,2.1,26.3c0.1,1.9,0.1,1.9,2.1,1.8c1.2,0,2.3-0.1,3.5,0
	c1,0.1,1.3-0.3,1.5-1.2c0.2-0.9,0.5-1.9,0.7-2.8c0.2-1.1,0.8-1.4,1.8-1.4c1.5,0.1,3,0.1,4.5,0c1.1-0.1,1.8,0.4,2.4,1.3
	c2.9,4.5,2.9,9,0,13.6c-0.5,0.8-1.1,1.2-2,1.2c-1.9,0-3.8,0-5.6-0.1c-0.3,0-0.8-0.5-0.9-0.8c-0.3-1.1-0.6-2.3-0.8-3.4
	c-0.1-0.7-0.5-1.1-1.3-1c-1.5,0.1-3.1,0-4.8,0c0.2,1.4,0.3,2.6,0.6,3.9c1.4,7.3,2.8,14.5,4.3,21.8c0.5,2.3,0.3,1.8,2.5,1.9
	c1.2,0,2.5,0.1,3.7-0.1c0.4,0,0.9-0.5,1.1-0.9c0.4-1.1,0.6-2.3,0.9-3.5c0.1-0.6,0.5-0.9,1.1-0.9c1.8,0,3.7-0.1,5.5,0.1
	c0.6,0,1.4,0.4,1.7,0.9c3.2,5.6,3.3,8.4,0,13.9c-0.3,0.5-1.2,1-1.9,1c-1.7,0.1-3.4,0-5.1,0.1c-0.9,0-1.3-0.4-1.4-1.2
	c-0.2-1.1-0.4-2.2-0.7-3.3c-0.1-0.3-0.5-0.8-0.7-0.8c-1.4-0.1-2.8,0-4.4,0C337.2,441.1,339.8,447.1,343.1,452.8z M314,486.2
	c0-2.4,0.1-4.6,0-6.8c-0.2-4.1-0.1-8.2-0.7-12.2c-0.9-7.1-3.7-13.6-7-19.9c-1.6-3-3.4-5.8-5.5-8.4c-2-2.5-4.1-2.4-6.3,0
	c-1.2,1.3-2.2,2.9-3.1,4.3c-5.2,8-8.7,16.7-9.6,26.2c-0.5,5.3-0.3,10.6-0.4,16c0,0.9,0.5,0.9,1.1,0.9c10,0,19.9,0,29.9,0
	C312.9,486.2,313.3,486.2,314,486.2z M274.3,435.4c-2.7,0-4.8,2-4.8,4.7c0,2.5,2,4.4,4.7,4.4c2.6,0,4.6-2,4.7-4.5
	C279,437.5,276.9,435.4,274.3,435.4z M281.7,408.9c2.7,0,4.7-2,4.7-4.7c0-2.4-2-4.3-4.5-4.4c-2.8,0-4.8,1.9-4.8,4.6
	C277.1,406.9,279.1,408.9,281.7,408.9z M313.8,408.9c2.7,0,4.7-1.8,4.7-4.4c0-2.7-1.9-4.7-4.6-4.7c-2.8,0-4.7,1.8-4.7,4.5
	C309.2,407,311.1,408.9,313.8,408.9z M309.1,365.3c-2.6,0-4.5,1.9-4.5,4.6c0,2.5,2.1,4.5,4.7,4.5c2.5,0,4.6-2.1,4.6-4.5
	C313.9,367.4,311.7,365.3,309.1,365.3z M286.4,365.3c-2.6,0-4.6,1.9-4.6,4.6c0,2.5,2.1,4.5,4.7,4.5c2.4,0,4.5-2,4.5-4.4
	C291,367.4,289,365.3,286.4,365.3z M316.9,439.8c-0.1,2.6,1.8,4.6,4.4,4.7c2.5,0.1,4.6-1.8,4.7-4.3c0.1-2.6-1.8-4.7-4.5-4.8
	C319.1,435.3,317,437.3,316.9,439.8z"/>
<linearGradient id="SVGID_00000159435231753689632870000013641811396437063073_" gradientUnits="userSpaceOnUse" x1="276" y1="502.85" x2="320.5" y2="502.85">
	<stop  offset="5.618000e-03" style="stop-color:#435972"/>
	<stop  offset="0.1077" style="stop-color:#536880"/>
	<stop  offset="0.2542" style="stop-color:#64768F"/>
	<stop  offset="0.4165" style="stop-color:#6E7F97"/>
	<stop  offset="0.6236" style="stop-color:#71829A"/>
	<stop  offset="0.7307" style="stop-color:#72849D"/>
	<stop  offset="0.8166" style="stop-color:#768BA7"/>
	<stop  offset="0.8953" style="stop-color:#7D96B8"/>
	<stop  offset="0.9691" style="stop-color:#86A5D0"/>
	<stop  offset="1" style="stop-color:#8BADDC"/>
</linearGradient>
<path style="fill:url(#SVGID_00000159435231753689632870000013641811396437063073_);" d="M320.3,511.8c-14.8,0-29.5,0-44.3,0
	c0-5.9,0-11.8,0-17.9c0.4,0,0.8,0,1.2,0c14,0,27.9,0,41.9,0c1,0,1.4,0.2,1.4,1.3c0,5.3,0,10.7,0,16
	C320.4,511.4,320.3,511.6,320.3,511.8z"/>
</svg>
